<mxfile host="app.diagrams.net" agent="Mozilla/5.0 (Windows NT 10.0; Win64; x64) AppleWebKit/537.36 (KHTML, like Gecko) Chrome/131.0.0.0 Safari/537.36 Edg/131.0.0.0" version="26.0.4">
  <diagram id="zssgmvdwZO7xPkAqMUr9" name="Page-1">
    <mxGraphModel dx="516" dy="290" grid="1" gridSize="10" guides="1" tooltips="1" connect="1" arrows="1" fold="1" page="1" pageScale="1" pageWidth="850" pageHeight="1100" background="#ffffff" math="0" shadow="0">
      <root>
        <mxCell id="0" />
        <mxCell id="1" parent="0" />
        <mxCell id="v5oIvpwDgeikFxTejpUY-1" value="" style="rounded=1;whiteSpace=wrap;html=1;strokeColor=#999999;strokeWidth=2;" parent="1" vertex="1">
          <mxGeometry x="10" y="10" width="120" height="80" as="geometry" />
        </mxCell>
        <mxCell id="v5oIvpwDgeikFxTejpUY-2" value="" style="rounded=1;whiteSpace=wrap;html=1;strokeColor=#999999;strokeWidth=2;" parent="1" vertex="1">
          <mxGeometry x="170" y="10" width="120" height="80" as="geometry" />
        </mxCell>
        <mxCell id="v5oIvpwDgeikFxTejpUY-4" value="" style="rounded=0;whiteSpace=wrap;html=1;fillColor=#dae8fc;strokeColor=#6c8ebf;" parent="1" vertex="1">
          <mxGeometry x="59" y="60" width="20" height="20" as="geometry" />
        </mxCell>
        <mxCell id="v5oIvpwDgeikFxTejpUY-5" value="" style="rounded=0;whiteSpace=wrap;html=1;fillColor=#dae8fc;strokeColor=#6c8ebf;" parent="1" vertex="1">
          <mxGeometry x="221" y="60" width="20" height="20" as="geometry" />
        </mxCell>
        <mxCell id="v5oIvpwDgeikFxTejpUY-18" value="&lt;div style=&quot;font-size: 16px;&quot;&gt;&lt;font style=&quot;font-size: 16px;&quot;&gt;FMU&lt;/font&gt;&lt;/div&gt;" style="text;html=1;strokeColor=none;fillColor=none;align=center;verticalAlign=middle;whiteSpace=wrap;rounded=0;fontSize=20;" parent="1" vertex="1">
          <mxGeometry x="40" y="30" width="60" height="30" as="geometry" />
        </mxCell>
        <mxCell id="v5oIvpwDgeikFxTejpUY-21" value="&lt;div style=&quot;font-size: 16px;&quot;&gt;&lt;font style=&quot;font-size: 16px;&quot;&gt;FMU&lt;/font&gt;&lt;/div&gt;" style="text;html=1;strokeColor=none;fillColor=none;align=center;verticalAlign=middle;whiteSpace=wrap;rounded=0;fontSize=20;" parent="1" vertex="1">
          <mxGeometry x="200" y="30" width="60" height="30" as="geometry" />
        </mxCell>
        <mxCell id="KEQrLfB2FrUfxKy-oO7P-1" value="" style="rounded=1;whiteSpace=wrap;html=1;strokeColor=#999999;strokeWidth=2;" parent="1" vertex="1">
          <mxGeometry x="10" y="134" width="440" height="80" as="geometry" />
        </mxCell>
        <mxCell id="v5oIvpwDgeikFxTejpUY-17" value="" style="endArrow=none;html=1;fontSize=20;fillColor=#b1ddf0;strokeColor=#7EA6E0;rounded=0;strokeWidth=7;movable=1;resizable=1;rotatable=1;deletable=1;editable=1;connectable=1;" parent="1" edge="1">
          <mxGeometry width="50" height="50" relative="1" as="geometry">
            <mxPoint x="430" y="164" as="sourcePoint" />
            <mxPoint x="30" y="164" as="targetPoint" />
            <Array as="points">
              <mxPoint x="260" y="164" />
              <mxPoint x="80" y="164" />
            </Array>
          </mxGeometry>
        </mxCell>
        <mxCell id="KEQrLfB2FrUfxKy-oO7P-3" value="" style="endArrow=none;html=1;rounded=0;entryX=0.5;entryY=1;entryDx=0;entryDy=0;strokeWidth=3;strokeColor=#7EA6E0;" parent="1" target="v5oIvpwDgeikFxTejpUY-4" edge="1">
          <mxGeometry width="50" height="50" relative="1" as="geometry">
            <mxPoint x="69" y="164" as="sourcePoint" />
            <mxPoint x="48.5" y="114" as="targetPoint" />
          </mxGeometry>
        </mxCell>
        <mxCell id="KEQrLfB2FrUfxKy-oO7P-4" value="" style="endArrow=none;html=1;rounded=0;entryX=0.5;entryY=1;entryDx=0;entryDy=0;strokeWidth=3;strokeColor=#7EA6E0;" parent="1" target="v5oIvpwDgeikFxTejpUY-5" edge="1">
          <mxGeometry width="50" height="50" relative="1" as="geometry">
            <mxPoint x="231" y="164" as="sourcePoint" />
            <mxPoint x="250.65999999999997" y="104" as="targetPoint" />
          </mxGeometry>
        </mxCell>
        <mxCell id="KEQrLfB2FrUfxKy-oO7P-5" value="&lt;font style=&quot;font-size: 20px;&quot;&gt;Bus Simulation&lt;/font&gt;" style="text;html=1;strokeColor=none;fillColor=none;align=center;verticalAlign=middle;whiteSpace=wrap;rounded=0;movable=1;resizable=1;rotatable=1;deletable=1;editable=1;connectable=1;fontSize=20;" parent="1" vertex="1">
          <mxGeometry x="31" y="180" width="400" height="30" as="geometry" />
        </mxCell>
        <mxCell id="KEQrLfB2FrUfxKy-oO7P-9" value="" style="endArrow=none;html=1;rounded=0;strokeColor=#FFFFFF;strokeWidth=3;fontSize=16;dashed=1;" parent="1" edge="1">
          <mxGeometry width="50" height="50" relative="1" as="geometry">
            <mxPoint x="208" y="164" as="sourcePoint" />
            <mxPoint x="253" y="164" as="targetPoint" />
          </mxGeometry>
        </mxCell>
        <mxCell id="87jym6ML_O6BWsMyHYAe-4" value="" style="rounded=1;whiteSpace=wrap;html=1;strokeColor=#999999;strokeWidth=2;" parent="1" vertex="1">
          <mxGeometry x="330" y="10" width="120" height="80" as="geometry" />
        </mxCell>
        <mxCell id="87jym6ML_O6BWsMyHYAe-5" value="" style="rounded=0;whiteSpace=wrap;html=1;fillColor=#dae8fc;strokeColor=#6c8ebf;" parent="1" vertex="1">
          <mxGeometry x="380" y="60" width="20" height="20" as="geometry" />
        </mxCell>
        <mxCell id="87jym6ML_O6BWsMyHYAe-6" value="&lt;div style=&quot;font-size: 16px;&quot;&gt;&lt;font style=&quot;font-size: 16px;&quot;&gt;FMU&lt;/font&gt;&lt;/div&gt;" style="text;html=1;strokeColor=none;fillColor=none;align=center;verticalAlign=middle;whiteSpace=wrap;rounded=0;fontSize=20;" parent="1" vertex="1">
          <mxGeometry x="360" y="30" width="60" height="30" as="geometry" />
        </mxCell>
        <mxCell id="87jym6ML_O6BWsMyHYAe-7" value="" style="endArrow=none;html=1;rounded=0;entryX=0.5;entryY=1;entryDx=0;entryDy=0;strokeWidth=3;strokeColor=#7EA6E0;" parent="1" target="87jym6ML_O6BWsMyHYAe-5" edge="1">
          <mxGeometry width="50" height="50" relative="1" as="geometry">
            <mxPoint x="390" y="164" as="sourcePoint" />
            <mxPoint x="409.65999999999997" y="104" as="targetPoint" />
          </mxGeometry>
        </mxCell>
        <mxCell id="87jym6ML_O6BWsMyHYAe-8" value="" style="endArrow=classic;html=1;rounded=0;fontSize=8;endSize=6;strokeColor=#006633;" parent="1" edge="1">
          <mxGeometry width="50" height="50" relative="1" as="geometry">
            <mxPoint x="60.81" y="93" as="sourcePoint" />
            <mxPoint x="60.81" y="131" as="targetPoint" />
          </mxGeometry>
        </mxCell>
        <mxCell id="87jym6ML_O6BWsMyHYAe-9" value="Transmit" style="text;html=1;strokeColor=none;fillColor=none;align=right;verticalAlign=middle;whiteSpace=wrap;rounded=0;fontSize=8;fontColor=#006633;" parent="1" vertex="1">
          <mxGeometry x="19" y="106" width="40" height="10" as="geometry" />
        </mxCell>
        <mxCell id="87jym6ML_O6BWsMyHYAe-10" value="" style="endArrow=none;html=1;rounded=0;fontSize=8;endSize=6;startArrow=classic;startFill=1;endFill=0;fillColor=#f8cecc;strokeColor=#990000;" parent="1" edge="1">
          <mxGeometry width="50" height="50" relative="1" as="geometry">
            <mxPoint x="239" y="93" as="sourcePoint" />
            <mxPoint x="239" y="131" as="targetPoint" />
          </mxGeometry>
        </mxCell>
        <mxCell id="87jym6ML_O6BWsMyHYAe-11" value="Bus Error" style="text;html=1;strokeColor=none;fillColor=none;align=left;verticalAlign=middle;whiteSpace=wrap;rounded=0;fontSize=8;fontColor=#990000;" parent="1" vertex="1">
          <mxGeometry x="240" y="109" width="90" height="10" as="geometry" />
        </mxCell>
        <mxCell id="87jym6ML_O6BWsMyHYAe-12" value="" style="endArrow=none;html=1;rounded=0;fontSize=8;endSize=6;startArrow=classic;startFill=1;endFill=0;fillColor=#f8cecc;strokeColor=#990000;" parent="1" edge="1">
          <mxGeometry width="50" height="50" relative="1" as="geometry">
            <mxPoint x="398" y="93" as="sourcePoint" />
            <mxPoint x="398" y="131" as="targetPoint" />
          </mxGeometry>
        </mxCell>
        <mxCell id="87jym6ML_O6BWsMyHYAe-14" value="" style="endArrow=none;html=1;rounded=0;fontSize=8;endSize=6;startArrow=classic;startFill=1;endFill=0;fillColor=#f8cecc;strokeColor=#990000;" parent="1" edge="1">
          <mxGeometry width="50" height="50" relative="1" as="geometry">
            <mxPoint x="77" y="93" as="sourcePoint" />
            <mxPoint x="77" y="131" as="targetPoint" />
          </mxGeometry>
        </mxCell>
        <mxCell id="87jym6ML_O6BWsMyHYAe-16" value="" style="verticalLabelPosition=bottom;verticalAlign=top;html=1;shape=mxgraph.basic.flash;fontSize=8;fillColor=#fff2cc;strokeColor=#d6b656;" parent="1" vertex="1">
          <mxGeometry x="213" y="144" width="32" height="40" as="geometry" />
        </mxCell>
        <mxCell id="KrRxnjXIWImUbvIDb2Ig-5" value="Bus Error" style="text;html=1;strokeColor=none;fillColor=none;align=left;verticalAlign=middle;whiteSpace=wrap;rounded=0;fontSize=8;fontColor=#990000;" parent="1" vertex="1">
          <mxGeometry x="399" y="109" width="41" height="10" as="geometry" />
        </mxCell>
        <mxCell id="KrRxnjXIWImUbvIDb2Ig-7" value="Bus Error" style="text;html=1;strokeColor=none;fillColor=none;align=left;verticalAlign=middle;whiteSpace=wrap;rounded=0;fontSize=8;fontColor=#990000;" parent="1" vertex="1">
          <mxGeometry x="79" y="109" width="90" height="10" as="geometry" />
        </mxCell>
        <mxCell id="fzVHSkc4tOVfYWzqcThB-3" value="Is Sender = FALSE&lt;br style=&quot;font-size: 5px;&quot;&gt;&lt;div&gt;&lt;br&gt;&lt;/div&gt;" style="text;html=1;strokeColor=none;fillColor=none;align=left;verticalAlign=middle;whiteSpace=wrap;rounded=0;fontSize=5;fontColor=#990000;" vertex="1" parent="1">
          <mxGeometry x="242" y="119" width="132" height="10" as="geometry" />
        </mxCell>
        <mxCell id="fzVHSkc4tOVfYWzqcThB-4" value="Is Sender = FALSE&lt;br style=&quot;font-size: 5px;&quot;&gt;&lt;div&gt;&lt;br&gt;&lt;/div&gt;" style="text;html=1;strokeColor=none;fillColor=none;align=left;verticalAlign=middle;whiteSpace=wrap;rounded=0;fontSize=5;fontColor=#990000;" vertex="1" parent="1">
          <mxGeometry x="401" y="119" width="132" height="10" as="geometry" />
        </mxCell>
        <mxCell id="fzVHSkc4tOVfYWzqcThB-5" value="Is Sender = TRUE&lt;br&gt;&lt;div&gt;&lt;br&gt;&lt;/div&gt;" style="text;html=1;strokeColor=none;fillColor=none;align=left;verticalAlign=middle;whiteSpace=wrap;rounded=0;fontSize=5;fontColor=#990000;" vertex="1" parent="1">
          <mxGeometry x="81" y="119" width="132" height="10" as="geometry" />
        </mxCell>
      </root>
    </mxGraphModel>
  </diagram>
</mxfile>
